<svg width="45" height="36" viewBox="0 0 45 36" fill="none" xmlns="http://www.w3.org/2000/svg">
<path d="M22.7391 5.99063L15.9328 11.5031C14.8008 12.4172 14.5828 14.0625 15.4406 15.2367C16.3477 16.4883 18.1125 16.7344 19.3289 15.7852L26.3109 10.357C26.8031 9.97734 27.5063 10.0617 27.893 10.5539C28.2797 11.0461 28.1883 11.7492 27.6961 12.1359L26.2266 13.275L36 22.275V9H35.9508L35.6766 8.82422L30.5719 5.55469C29.4961 4.86563 28.2375 4.5 26.9578 4.5C25.425 4.5 23.9344 5.02734 22.7391 5.99063ZM24.3422 14.7375L20.707 17.5641C18.4922 19.2937 15.2789 18.8438 13.6195 16.5656C12.0586 14.4211 12.4523 11.4258 14.5125 9.75938L20.3625 5.02734C19.5469 4.68281 18.668 4.50703 17.775 4.50703C16.4531 4.5 15.1664 4.89375 14.0625 5.625L9 9V24.75H10.9828L17.4094 30.6141C18.7875 31.8727 20.918 31.7742 22.1766 30.3961C22.5633 29.9672 22.8234 29.468 22.957 28.9477L24.1523 30.0445C25.5234 31.3031 27.6609 31.2117 28.9195 29.8406C29.2359 29.4961 29.468 29.0953 29.6156 28.6805C30.9797 29.5945 32.8359 29.4047 33.982 28.1531C35.2406 26.782 35.1492 24.6445 33.7781 23.3859L24.3422 14.7375ZM1.125 9C0.50625 9 0 9.50625 0 10.125V24.75C0 25.9945 1.00547 27 2.25 27H4.5C5.74453 27 6.75 25.9945 6.75 24.75V9H1.125ZM3.375 22.5C3.9959 22.5 4.5 23.0041 4.5 23.625C4.5 24.2459 3.9959 24.75 3.375 24.75C2.7541 24.75 2.25 24.2459 2.25 23.625C2.25 23.0041 2.7541 22.5 3.375 22.5ZM38.25 9V24.75C38.25 25.9945 39.2555 27 40.5 27H42.75C43.9945 27 45 25.9945 45 24.75V10.125C45 9.50625 44.4938 9 43.875 9H38.25ZM40.5 23.625C40.5 23.0041 41.0041 22.5 41.625 22.5C42.2459 22.5 42.75 23.0041 42.75 23.625C42.75 24.2459 42.2459 24.75 41.625 24.75C41.0041 24.75 40.5 24.2459 40.5 23.625Z" fill="#6EA22F"/>
</svg>
