<svg width="36" height="36" viewBox="0 0 36 36" fill="none" xmlns="http://www.w3.org/2000/svg">
<path d="M19.125 6.75004C13.5984 6.75004 8.92266 10.3711 7.33359 15.3633C9.69609 14.168 12.3609 13.5 15.1875 13.5H21.375C21.9937 13.5 22.5 14.0063 22.5 14.625C22.5 15.2438 21.9937 15.75 21.375 15.75H20.25H15.1875C14.0203 15.75 12.8883 15.8836 11.7984 16.1297C9.97734 16.5446 8.28281 17.2829 6.77812 18.2883C2.69297 21.0094 0 25.6571 0 30.9375V32.0625C0 32.9977 0.752344 33.75 1.6875 33.75C2.62266 33.75 3.375 32.9977 3.375 32.0625V30.9375C3.375 27.5133 4.83047 24.4336 7.15781 22.275C8.55 27.5836 13.3805 31.5 19.125 31.5H19.1953C28.4836 31.4508 36 22.2961 36 11.011C36 8.01567 35.4727 5.16801 34.5164 2.60161C34.3336 2.11645 33.6234 2.13754 33.3773 2.59458C32.0555 5.06958 29.4398 6.75004 26.4375 6.75004H19.125Z" fill="#6EA22F"/>
</svg>
