<svg width="156" height="128" viewBox="0 0 156 128" fill="none" xmlns="http://www.w3.org/2000/svg">
<path d="M155.391 0C152.533 4.02078 150.463 8.2426 149.182 12.6655C144.451 28.6816 147.999 40.1408 149.478 55.7548C151.745 78.4052 128.879 98.6431 104.141 111.912C79.4024 125.18 90.3424 119.283 86.7943 120.221C83.2462 121.159 82.4577 119.886 80.0923 119.819C79.8952 119.149 80.388 119.149 80.8808 118.881C84.1332 116.871 88.4698 115.061 91.9194 112.984C112.223 100.251 125.528 80.7506 124.345 61.786C124.345 61.3839 124.74 60.5127 123.853 60.6468C118.826 79.5444 108.576 100.788 83.0491 111.175C84.9217 105.746 85.9073 100.184 85.513 94.6223C84.3303 78.0031 76.8398 67.147 82.2606 49.3216C90.0468 23.7226 120.896 8.04156 155.391 0Z" fill="black"/>
<path d="M18.0985 32.7693C20.661 42.0171 28.7429 51.3319 39.2887 57.3631C49.8345 63.3943 52.6927 63.0592 58.7048 66.5439C72.9959 74.8535 84.1331 89.8644 83.0489 102.865C82.2605 112.113 75.3613 119.35 69.7435 127.459C68.8564 127.526 69.3492 126.722 69.3492 126.386C69.9406 123.17 71.5175 119.819 72.1089 116.536C74.1786 104.205 68.8564 90.7356 55.6495 81.9569C55.2553 81.9569 55.3538 82.2919 55.4524 82.426C56.0438 83.4312 58.902 85.7766 59.9861 87.0499C69.9406 99.1792 74.3757 112.716 66.5896 126.051C64.7169 122.902 63.5342 119.685 61.2674 116.603C49.9331 101.592 30.9112 102.061 15.9302 90.9366C-6.04847 74.7195 -3.5845 54.8836 12.9734 37.1922C14.0576 36.053 15.536 34.3106 16.7187 33.3725C17.9014 32.4343 17.2115 32.7023 18.0985 32.8364V32.7693Z" fill="black"/>
</svg>
